<svg width="56" height="56" viewBox="0 0 58 68" fill="none" xmlns="http://www.w3.org/2000/svg">
<path d="M34.5658 48.3452C32.0209 54.4465 27.3057 63.2034 21.8879 64.1015C19.8594 57.1502 9.71704 52.413 9.71704 43.711C9.71704 35.0091 17.4216 33.5158 24.4234 33.5158C31.4253 33.5158 35.3141 36.4837 34.5658 48.3452Z" fill="#FF7517"/>
<path d="M55.8801 23.1349C55.8801 12.6282 48.0549 2 29.0509 2C10.0469 2 2.12012 12.5597 2.12012 23.1349C2.12011 33.7101 18.2786 66 28.9493 66C39.62 66 55.8801 33.6416 55.8801 23.1349Z" stroke="white" stroke-width="2.44054"/>
<path d="M8.96851 44.1774C13.9212 33.8718 18.9474 31.9156 31.1171 33.8696" stroke="white" stroke-width="2.44054"/>
<path d="M45.7959 5.72546L32.5323 25.9619C30.4849 29.0858 30.3993 33.1041 32.3119 36.3123L34.0434 39.2167C35.922 42.3678 35.8753 46.3061 33.9226 49.4118L24.3569 64.6254" stroke="white" stroke-width="2.44054"/>
</svg>
