<svg width="30" height="21" viewBox="0 0 30 21" fill="none" xmlns="http://www.w3.org/2000/svg">
<path d="M1.66667 20.3333H28.3333C29.25 20.3333 30 19.5833 30 18.6667C30 17.75 29.25 17 28.3333 17H1.66667C0.75 17 0 17.75 0 18.6667C0 19.5833 0.75 20.3333 1.66667 20.3333ZM1.66667 12H28.3333C29.25 12 30 11.25 30 10.3333C30 9.41668 29.25 8.66668 28.3333 8.66668H1.66667C0.75 8.66668 0 9.41668 0 10.3333C0 11.25 0.75 12 1.66667 12ZM0 2.00001C0 2.91668 0.75 3.66668 1.66667 3.66668H28.3333C29.25 3.66668 30 2.91668 30 2.00001C30 1.08334 29.25 0.333344 28.3333 0.333344H1.66667C0.75 0.333344 0 1.08334 0 2.00001Z" fill="#F6F4F4"/>
</svg>
